<svg width="1600" height="1800" viewBox="0 0 1600 1800" fill="none" xmlns="http://www.w3.org/2000/svg">
  <defs>
    <linearGradient id="bg" x1="160" y1="80" x2="1440" y2="1660" gradientUnits="userSpaceOnUse">
      <stop stop-color="#120D13"/>
      <stop offset="0.45" stop-color="#2A1020"/>
      <stop offset="1" stop-color="#09080B"/>
    </linearGradient>
    <radialGradient id="halo" cx="0" cy="0" r="1" gradientUnits="userSpaceOnUse" gradientTransform="translate(1210 360) rotate(137) scale(680 620)">
      <stop stop-color="#F5C2D4" stop-opacity="0.62"/>
      <stop offset="1" stop-color="#F5C2D4" stop-opacity="0"/>
    </radialGradient>
    <linearGradient id="letter" x1="934" y1="320" x2="934" y2="1320" gradientUnits="userSpaceOnUse">
      <stop stop-color="#FFF7FA" stop-opacity="0.96"/>
      <stop offset="1" stop-color="#F1B7CB" stop-opacity="0.18"/>
    </linearGradient>
  </defs>
  <rect width="1600" height="1800" fill="url(#bg)"/>
  <rect width="1600" height="1800" fill="url(#halo)"/>
  <path d="M1182 242C1285 242 1368 325 1368 428C1368 531 1285 614 1182 614C1079 614 996 531 996 428C996 325 1079 242 1182 242Z" fill="#EAB8CC" fill-opacity="0.18"/>
  <circle cx="1306" cy="1314" r="118" fill="#F0BED0" fill-opacity="0.94"/>
  <rect x="120" y="120" width="456" height="112" rx="56" fill="#140F14" fill-opacity="0.64" stroke="#F0BED0" stroke-opacity="0.34"/>
  <circle cx="196" cy="176" r="42" fill="#F4D5E0"/>
  <text x="196" y="190" text-anchor="middle" font-family="Georgia, 'Times New Roman', serif" font-size="54" fill="#1C151A">B.</text>
  <text x="266" y="188" font-family="Arial, Helvetica, sans-serif" font-size="34" letter-spacing="14" fill="#F7E7EE" fill-opacity="0.84">BELAPOP</text>
  <text transform="translate(340 1342) rotate(-90)" font-family="Arial, Helvetica, sans-serif" font-size="118" font-weight="700" letter-spacing="8" fill="#E7B5C8" fill-opacity="0.28">MAQUIAGEM</text>
  <text x="610" y="1202" font-family="Georgia, 'Times New Roman', serif" font-size="840" font-weight="700" fill="url(#letter)">M</text>
  <text x="800" y="1596" text-anchor="middle" font-family="Arial, Helvetica, sans-serif" font-size="84" letter-spacing="18" fill="#FFF7FA" fill-opacity="0.92">OFICIAL</text>
</svg>