<svg width="1600" height="1800" viewBox="0 0 1600 1800" fill="none" xmlns="http://www.w3.org/2000/svg">
  <defs>
    <linearGradient id="bg" x1="150" y1="60" x2="1440" y2="1660" gradientUnits="userSpaceOnUse">
      <stop stop-color="#120D12"/>
      <stop offset="0.44" stop-color="#26111B"/>
      <stop offset="1" stop-color="#0A090B"/>
    </linearGradient>
    <radialGradient id="halo" cx="0" cy="0" r="1" gradientUnits="userSpaceOnUse" gradientTransform="translate(1220 320) rotate(129) scale(700 620)">
      <stop stop-color="#EAB7CA" stop-opacity="0.6"/>
      <stop offset="1" stop-color="#EAB7CA" stop-opacity="0"/>
    </radialGradient>
    <linearGradient id="letter" x1="972" y1="304" x2="972" y2="1310" gradientUnits="userSpaceOnUse">
      <stop stop-color="#FFF9FB" stop-opacity="0.96"/>
      <stop offset="1" stop-color="#E8B4C7" stop-opacity="0.16"/>
    </linearGradient>
  </defs>
  <rect width="1600" height="1800" fill="url(#bg)"/>
  <rect width="1600" height="1800" fill="url(#halo)"/>
  <path d="M1090 320C1090 262.562 1136.56 216 1194 216H1234C1291.44 216 1338 262.562 1338 320V360C1338 417.438 1291.44 464 1234 464H1194C1136.56 464 1090 417.438 1090 360V320Z" fill="#EAB7CA" fill-opacity="0.16"/>
  <circle cx="1310" cy="1328" r="118" fill="#EAB7CA" fill-opacity="0.92"/>
  <rect x="120" y="120" width="432" height="112" rx="56" fill="#151015" fill-opacity="0.64" stroke="#EAB7CA" stroke-opacity="0.34"/>
  <circle cx="196" cy="176" r="42" fill="#F2D0DC"/>
  <text x="196" y="190" text-anchor="middle" font-family="Georgia, 'Times New Roman', serif" font-size="54" fill="#1C151A">B.</text>
  <text x="266" y="188" font-family="Arial, Helvetica, sans-serif" font-size="34" letter-spacing="14" fill="#F7E7EE" fill-opacity="0.84">BELAPOP</text>
  <text transform="translate(344 1140) rotate(-90)" font-family="Arial, Helvetica, sans-serif" font-size="118" font-weight="700" letter-spacing="8" fill="#E7B5C8" fill-opacity="0.27">CORPO</text>
  <text x="754" y="1200" font-family="Georgia, 'Times New Roman', serif" font-size="930" font-weight="700" fill="url(#letter)">C</text>
  <text x="800" y="1596" text-anchor="middle" font-family="Arial, Helvetica, sans-serif" font-size="84" letter-spacing="18" fill="#FFF7FA" fill-opacity="0.92">OFICIAL</text>
</svg>